<svg width="72" height="43" viewBox="0 0 72 43" fill="none" xmlns="http://www.w3.org/2000/svg">
<path d="M18.9141 23.0156L30.0938 37.0078C31.6719 38.9766 33.0312 40.3125 34.1719 41.0156C35 41.5156 35.875 41.7656 36.7969 41.7656V42.6328H20.25V41.7656C21.2969 41.6719 21.9688 41.5078 22.2656 41.2734C22.5781 41.0391 22.7344 40.75 22.7344 40.4062C22.7344 39.75 22.0156 38.5156 20.5781 36.7031L13.2891 27.5391L12.1172 28.5234V37.1953C12.1172 38.8516 12.2109 39.8828 12.3984 40.2891C12.5859 40.6953 12.9453 41.0469 13.4766 41.3438C14.0078 41.625 14.8594 41.7656 16.0312 41.7656V42.6328H0V41.7656H1.05469C1.97656 41.7656 2.71875 41.6016 3.28125 41.2734C3.6875 41.0547 4 40.6797 4.21875 40.1484C4.39062 39.7734 4.47656 38.7891 4.47656 37.1953V16.2891C4.47656 14.6641 4.39062 13.6484 4.21875 13.2422C4.04688 12.8359 3.69531 12.4844 3.16406 12.1875C2.64844 11.875 1.94531 11.7188 1.05469 11.7188H0V10.8516H15.8203V11.7188C14.7422 11.7188 13.9219 11.875 13.3594 12.1875C12.9531 12.4062 12.6328 12.7734 12.3984 13.2891C12.2109 13.6797 12.1172 14.6797 12.1172 16.2891V26.1797L23.9062 16.6406C25.5469 15.3125 26.3672 14.25 26.3672 13.4531C26.3672 12.8594 26.0312 12.3906 25.3594 12.0469C25.0156 11.875 24.1641 11.7656 22.8047 11.7188V10.8516H35.2031V11.7188C34.0938 11.7969 33.2188 12 32.5781 12.3281C31.9531 12.6406 30.5 13.7188 28.2188 15.5625L18.9141 23.0156ZM49.0312 28.1484V37.0547C49.0312 38.7734 49.1328 39.8594 49.3359 40.3125C49.5547 40.75 49.9297 41.1016 50.4609 41.3672C50.9922 41.6328 51.9844 41.7656 53.4375 41.7656V42.6328H37.1719V41.7656C38.6406 41.7656 39.6328 41.6328 40.1484 41.3672C40.6797 41.0859 41.0469 40.7266 41.25 40.2891C41.4688 39.8516 41.5781 38.7734 41.5781 37.0547V16.4297C41.5781 14.7109 41.4688 13.6328 41.25 13.1953C41.0469 12.7422 40.6797 12.3828 40.1484 12.1172C39.6172 11.8516 38.625 11.7188 37.1719 11.7188V10.8516H51.9375C55.7812 10.8516 58.5938 11.1172 60.375 11.6484C62.1562 12.1797 63.6094 13.1641 64.7344 14.6016C65.8594 16.0234 66.4219 17.6953 66.4219 19.6172C66.4219 21.9609 65.5781 23.8984 63.8906 25.4297C62.8125 26.3984 61.3047 27.125 59.3672 27.6094L67.0078 38.3672C68.0078 39.7578 68.7188 40.625 69.1406 40.9688C69.7812 41.4531 70.5234 41.7188 71.3672 41.7656V42.6328H61.3594L51.1172 28.1484H49.0312ZM49.0312 12.5625V26.4844H50.3672C52.5391 26.4844 54.1641 26.2891 55.2422 25.8984C56.3203 25.4922 57.1641 24.7734 57.7734 23.7422C58.3984 22.6953 58.7109 21.3359 58.7109 19.6641C58.7109 17.2422 58.1406 15.4531 57 14.2969C55.875 13.1406 54.0547 12.5625 51.5391 12.5625H49.0312ZM60.5156 0L52.7578 8.13281H50.7422L53.4609 0H60.5156Z" fill="#FAF7F2"/>
</svg>
